<mxfile host="app.diagrams.net" modified="2023-11-20T08:37:42.495Z" agent="Mozilla/5.0 (Windows NT 10.0; Win64; x64) AppleWebKit/537.36 (KHTML, like Gecko) Chrome/117.0.0.0 Safari/537.36" etag="wPja5EmvqcHsNqwsAgTt" version="22.1.3" type="device">
  <diagram name="Page-1" id="xKOItB6Ztj9TnyzCL-dI">
    <mxGraphModel dx="1009" dy="649" grid="1" gridSize="10" guides="1" tooltips="1" connect="1" arrows="1" fold="1" page="1" pageScale="1" pageWidth="850" pageHeight="1100" math="0" shadow="0">
      <root>
        <mxCell id="0" />
        <mxCell id="1" parent="0" />
        <mxCell id="Kho3y71CLKbO8eLmow51-4" style="edgeStyle=orthogonalEdgeStyle;rounded=0;orthogonalLoop=1;jettySize=auto;html=1;entryX=0.5;entryY=0;entryDx=0;entryDy=0;" edge="1" parent="1" source="Kho3y71CLKbO8eLmow51-1" target="Kho3y71CLKbO8eLmow51-2">
          <mxGeometry relative="1" as="geometry" />
        </mxCell>
        <mxCell id="Kho3y71CLKbO8eLmow51-1" value="Zapnutie programu" style="rounded=1;whiteSpace=wrap;html=1;" vertex="1" parent="1">
          <mxGeometry x="350" y="20" width="120" height="60" as="geometry" />
        </mxCell>
        <mxCell id="Kho3y71CLKbO8eLmow51-6" style="edgeStyle=orthogonalEdgeStyle;rounded=0;orthogonalLoop=1;jettySize=auto;html=1;entryX=0.5;entryY=0;entryDx=0;entryDy=0;" edge="1" parent="1" source="Kho3y71CLKbO8eLmow51-2" target="Kho3y71CLKbO8eLmow51-5">
          <mxGeometry relative="1" as="geometry" />
        </mxCell>
        <mxCell id="Kho3y71CLKbO8eLmow51-10" style="edgeStyle=orthogonalEdgeStyle;rounded=0;orthogonalLoop=1;jettySize=auto;html=1;entryX=0.5;entryY=0;entryDx=0;entryDy=0;" edge="1" parent="1" source="Kho3y71CLKbO8eLmow51-2" target="Kho3y71CLKbO8eLmow51-9">
          <mxGeometry relative="1" as="geometry" />
        </mxCell>
        <mxCell id="Kho3y71CLKbO8eLmow51-12" style="edgeStyle=orthogonalEdgeStyle;rounded=0;orthogonalLoop=1;jettySize=auto;html=1;entryX=0.5;entryY=0;entryDx=0;entryDy=0;" edge="1" parent="1" source="Kho3y71CLKbO8eLmow51-2" target="Kho3y71CLKbO8eLmow51-11">
          <mxGeometry relative="1" as="geometry" />
        </mxCell>
        <mxCell id="Kho3y71CLKbO8eLmow51-2" value="Klient/Server&lt;br&gt;/Exit" style="rhombus;whiteSpace=wrap;html=1;" vertex="1" parent="1">
          <mxGeometry x="360" y="140" width="100" height="100" as="geometry" />
        </mxCell>
        <mxCell id="Kho3y71CLKbO8eLmow51-8" style="edgeStyle=orthogonalEdgeStyle;rounded=0;orthogonalLoop=1;jettySize=auto;html=1;entryX=0.5;entryY=0;entryDx=0;entryDy=0;" edge="1" parent="1" source="Kho3y71CLKbO8eLmow51-5" target="Kho3y71CLKbO8eLmow51-7">
          <mxGeometry relative="1" as="geometry" />
        </mxCell>
        <mxCell id="Kho3y71CLKbO8eLmow51-5" value="Exit" style="rounded=1;whiteSpace=wrap;html=1;" vertex="1" parent="1">
          <mxGeometry x="350" y="280" width="120" height="60" as="geometry" />
        </mxCell>
        <mxCell id="Kho3y71CLKbO8eLmow51-7" value="Ukončí spojenie" style="rounded=1;whiteSpace=wrap;html=1;" vertex="1" parent="1">
          <mxGeometry x="350" y="380" width="120" height="60" as="geometry" />
        </mxCell>
        <mxCell id="Kho3y71CLKbO8eLmow51-60" style="edgeStyle=orthogonalEdgeStyle;rounded=0;orthogonalLoop=1;jettySize=auto;html=1;entryX=0.5;entryY=0;entryDx=0;entryDy=0;" edge="1" parent="1" source="Kho3y71CLKbO8eLmow51-9" target="Kho3y71CLKbO8eLmow51-59">
          <mxGeometry relative="1" as="geometry" />
        </mxCell>
        <mxCell id="Kho3y71CLKbO8eLmow51-9" value="Server" style="rounded=1;whiteSpace=wrap;html=1;" vertex="1" parent="1">
          <mxGeometry x="610" y="210" width="120" height="60" as="geometry" />
        </mxCell>
        <mxCell id="Kho3y71CLKbO8eLmow51-16" style="edgeStyle=orthogonalEdgeStyle;rounded=0;orthogonalLoop=1;jettySize=auto;html=1;entryX=0.5;entryY=0;entryDx=0;entryDy=0;" edge="1" parent="1" source="Kho3y71CLKbO8eLmow51-11" target="Kho3y71CLKbO8eLmow51-15">
          <mxGeometry relative="1" as="geometry" />
        </mxCell>
        <mxCell id="Kho3y71CLKbO8eLmow51-11" value="Klient" style="rounded=1;whiteSpace=wrap;html=1;" vertex="1" parent="1">
          <mxGeometry x="100" y="210" width="120" height="60" as="geometry" />
        </mxCell>
        <mxCell id="Kho3y71CLKbO8eLmow51-18" style="edgeStyle=orthogonalEdgeStyle;rounded=0;orthogonalLoop=1;jettySize=auto;html=1;entryX=0.5;entryY=0;entryDx=0;entryDy=0;" edge="1" parent="1" source="Kho3y71CLKbO8eLmow51-15" target="Kho3y71CLKbO8eLmow51-17">
          <mxGeometry relative="1" as="geometry" />
        </mxCell>
        <mxCell id="Kho3y71CLKbO8eLmow51-20" style="edgeStyle=orthogonalEdgeStyle;rounded=0;orthogonalLoop=1;jettySize=auto;html=1;entryX=0.5;entryY=0;entryDx=0;entryDy=0;" edge="1" parent="1" source="Kho3y71CLKbO8eLmow51-15" target="Kho3y71CLKbO8eLmow51-19">
          <mxGeometry relative="1" as="geometry" />
        </mxCell>
        <mxCell id="Kho3y71CLKbO8eLmow51-15" value="Poslať&amp;nbsp;&lt;br&gt;Správu/Súbor&lt;br&gt;" style="rhombus;whiteSpace=wrap;html=1;" vertex="1" parent="1">
          <mxGeometry x="100" y="300" width="120" height="120" as="geometry" />
        </mxCell>
        <mxCell id="Kho3y71CLKbO8eLmow51-26" style="edgeStyle=orthogonalEdgeStyle;rounded=0;orthogonalLoop=1;jettySize=auto;html=1;entryX=0.5;entryY=0;entryDx=0;entryDy=0;" edge="1" parent="1" source="Kho3y71CLKbO8eLmow51-17" target="Kho3y71CLKbO8eLmow51-21">
          <mxGeometry relative="1" as="geometry" />
        </mxCell>
        <mxCell id="Kho3y71CLKbO8eLmow51-17" value="Správa" style="rounded=1;whiteSpace=wrap;html=1;" vertex="1" parent="1">
          <mxGeometry y="420" width="80" height="60" as="geometry" />
        </mxCell>
        <mxCell id="Kho3y71CLKbO8eLmow51-27" style="edgeStyle=orthogonalEdgeStyle;rounded=0;orthogonalLoop=1;jettySize=auto;html=1;" edge="1" parent="1" source="Kho3y71CLKbO8eLmow51-19" target="Kho3y71CLKbO8eLmow51-22">
          <mxGeometry relative="1" as="geometry" />
        </mxCell>
        <mxCell id="Kho3y71CLKbO8eLmow51-19" value="Súbor" style="rounded=1;whiteSpace=wrap;html=1;" vertex="1" parent="1">
          <mxGeometry x="230" y="420" width="80" height="60" as="geometry" />
        </mxCell>
        <mxCell id="Kho3y71CLKbO8eLmow51-28" style="edgeStyle=orthogonalEdgeStyle;rounded=0;orthogonalLoop=1;jettySize=auto;html=1;entryX=0.5;entryY=0;entryDx=0;entryDy=0;" edge="1" parent="1" source="Kho3y71CLKbO8eLmow51-21" target="Kho3y71CLKbO8eLmow51-25">
          <mxGeometry relative="1" as="geometry" />
        </mxCell>
        <mxCell id="Kho3y71CLKbO8eLmow51-21" value="Zadaj správu" style="rounded=1;whiteSpace=wrap;html=1;" vertex="1" parent="1">
          <mxGeometry x="5" y="510" width="70" height="60" as="geometry" />
        </mxCell>
        <mxCell id="Kho3y71CLKbO8eLmow51-29" style="edgeStyle=orthogonalEdgeStyle;rounded=0;orthogonalLoop=1;jettySize=auto;html=1;" edge="1" parent="1" source="Kho3y71CLKbO8eLmow51-22">
          <mxGeometry relative="1" as="geometry">
            <mxPoint x="150" y="600" as="targetPoint" />
          </mxGeometry>
        </mxCell>
        <mxCell id="Kho3y71CLKbO8eLmow51-22" value="Zadaj cestu ku súboru" style="rounded=1;whiteSpace=wrap;html=1;" vertex="1" parent="1">
          <mxGeometry x="230" y="510" width="80" height="60" as="geometry" />
        </mxCell>
        <mxCell id="Kho3y71CLKbO8eLmow51-34" style="edgeStyle=orthogonalEdgeStyle;rounded=0;orthogonalLoop=1;jettySize=auto;html=1;entryX=0.5;entryY=0;entryDx=0;entryDy=0;" edge="1" parent="1" source="Kho3y71CLKbO8eLmow51-25" target="Kho3y71CLKbO8eLmow51-33">
          <mxGeometry relative="1" as="geometry" />
        </mxCell>
        <mxCell id="Kho3y71CLKbO8eLmow51-35" style="edgeStyle=orthogonalEdgeStyle;rounded=0;orthogonalLoop=1;jettySize=auto;html=1;" edge="1" parent="1" source="Kho3y71CLKbO8eLmow51-25" target="Kho3y71CLKbO8eLmow51-31">
          <mxGeometry relative="1" as="geometry" />
        </mxCell>
        <mxCell id="Kho3y71CLKbO8eLmow51-25" value="Fragmentuj ?" style="rhombus;whiteSpace=wrap;html=1;" vertex="1" parent="1">
          <mxGeometry x="100" y="600" width="100" height="90" as="geometry" />
        </mxCell>
        <mxCell id="Kho3y71CLKbO8eLmow51-44" style="edgeStyle=orthogonalEdgeStyle;rounded=0;orthogonalLoop=1;jettySize=auto;html=1;" edge="1" parent="1" source="Kho3y71CLKbO8eLmow51-31" target="Kho3y71CLKbO8eLmow51-43">
          <mxGeometry relative="1" as="geometry" />
        </mxCell>
        <mxCell id="Kho3y71CLKbO8eLmow51-31" value="Nadviaž spojenie" style="rounded=1;whiteSpace=wrap;html=1;" vertex="1" parent="1">
          <mxGeometry x="110" y="750" width="80" height="60" as="geometry" />
        </mxCell>
        <mxCell id="Kho3y71CLKbO8eLmow51-42" style="edgeStyle=orthogonalEdgeStyle;rounded=0;orthogonalLoop=1;jettySize=auto;html=1;entryX=0.5;entryY=0;entryDx=0;entryDy=0;" edge="1" parent="1" source="Kho3y71CLKbO8eLmow51-33" target="Kho3y71CLKbO8eLmow51-31">
          <mxGeometry relative="1" as="geometry" />
        </mxCell>
        <mxCell id="Kho3y71CLKbO8eLmow51-33" value="Zadaj velkosť&lt;br&gt;fragmentu" style="rounded=1;whiteSpace=wrap;html=1;" vertex="1" parent="1">
          <mxGeometry x="5" y="685" width="80" height="60" as="geometry" />
        </mxCell>
        <mxCell id="Kho3y71CLKbO8eLmow51-36" value="Ano" style="text;html=1;align=center;verticalAlign=middle;resizable=0;points=[];autosize=1;strokeColor=none;fillColor=none;" vertex="1" parent="1">
          <mxGeometry x="45" y="610" width="40" height="30" as="geometry" />
        </mxCell>
        <mxCell id="Kho3y71CLKbO8eLmow51-38" value="Nie" style="text;html=1;align=center;verticalAlign=middle;resizable=0;points=[];autosize=1;strokeColor=none;fillColor=none;" vertex="1" parent="1">
          <mxGeometry x="160" y="685" width="40" height="30" as="geometry" />
        </mxCell>
        <mxCell id="Kho3y71CLKbO8eLmow51-47" style="edgeStyle=orthogonalEdgeStyle;rounded=0;orthogonalLoop=1;jettySize=auto;html=1;entryX=0.5;entryY=0;entryDx=0;entryDy=0;" edge="1" parent="1" source="Kho3y71CLKbO8eLmow51-43" target="Kho3y71CLKbO8eLmow51-46">
          <mxGeometry relative="1" as="geometry" />
        </mxCell>
        <mxCell id="Kho3y71CLKbO8eLmow51-43" value="Pošli packet" style="rounded=1;whiteSpace=wrap;html=1;" vertex="1" parent="1">
          <mxGeometry x="110" y="830" width="80" height="60" as="geometry" />
        </mxCell>
        <mxCell id="Kho3y71CLKbO8eLmow51-49" style="edgeStyle=orthogonalEdgeStyle;rounded=0;orthogonalLoop=1;jettySize=auto;html=1;entryX=0;entryY=0.5;entryDx=0;entryDy=0;" edge="1" parent="1" source="Kho3y71CLKbO8eLmow51-46" target="Kho3y71CLKbO8eLmow51-43">
          <mxGeometry relative="1" as="geometry">
            <mxPoint x="30" y="780" as="targetPoint" />
            <Array as="points">
              <mxPoint x="40" y="960" />
              <mxPoint x="40" y="860" />
            </Array>
          </mxGeometry>
        </mxCell>
        <mxCell id="Kho3y71CLKbO8eLmow51-53" style="edgeStyle=orthogonalEdgeStyle;rounded=0;orthogonalLoop=1;jettySize=auto;html=1;entryX=0;entryY=0.5;entryDx=0;entryDy=0;" edge="1" parent="1" source="Kho3y71CLKbO8eLmow51-46" target="Kho3y71CLKbO8eLmow51-52">
          <mxGeometry relative="1" as="geometry" />
        </mxCell>
        <mxCell id="Kho3y71CLKbO8eLmow51-46" value="Potvrdenie zo servera" style="rhombus;whiteSpace=wrap;html=1;" vertex="1" parent="1">
          <mxGeometry x="95" y="910" width="110" height="100" as="geometry" />
        </mxCell>
        <mxCell id="Kho3y71CLKbO8eLmow51-48" value="Nie" style="text;html=1;align=center;verticalAlign=middle;resizable=0;points=[];autosize=1;strokeColor=none;fillColor=none;" vertex="1" parent="1">
          <mxGeometry x="60" y="920" width="40" height="30" as="geometry" />
        </mxCell>
        <mxCell id="Kho3y71CLKbO8eLmow51-50" value="Ano" style="text;html=1;align=center;verticalAlign=middle;resizable=0;points=[];autosize=1;strokeColor=none;fillColor=none;" vertex="1" parent="1">
          <mxGeometry x="100" y="1010" width="40" height="30" as="geometry" />
        </mxCell>
        <mxCell id="Kho3y71CLKbO8eLmow51-54" style="edgeStyle=orthogonalEdgeStyle;rounded=0;orthogonalLoop=1;jettySize=auto;html=1;entryX=1;entryY=0.5;entryDx=0;entryDy=0;" edge="1" parent="1" source="Kho3y71CLKbO8eLmow51-52" target="Kho3y71CLKbO8eLmow51-43">
          <mxGeometry relative="1" as="geometry" />
        </mxCell>
        <mxCell id="Kho3y71CLKbO8eLmow51-56" style="edgeStyle=orthogonalEdgeStyle;rounded=0;orthogonalLoop=1;jettySize=auto;html=1;entryX=0.5;entryY=0;entryDx=0;entryDy=0;" edge="1" parent="1">
          <mxGeometry relative="1" as="geometry">
            <mxPoint x="159.96" y="299.96" as="targetPoint" />
            <mxPoint x="279.96" y="1044.96" as="sourcePoint" />
            <Array as="points">
              <mxPoint x="330" y="1045" />
              <mxPoint x="330" y="280" />
              <mxPoint x="160" y="280" />
            </Array>
          </mxGeometry>
        </mxCell>
        <mxCell id="Kho3y71CLKbO8eLmow51-52" value="Poslal všetky&amp;nbsp;" style="rhombus;whiteSpace=wrap;html=1;" vertex="1" parent="1">
          <mxGeometry x="190" y="1000" width="90" height="90" as="geometry" />
        </mxCell>
        <mxCell id="Kho3y71CLKbO8eLmow51-55" value="Nie" style="text;html=1;align=center;verticalAlign=middle;resizable=0;points=[];autosize=1;strokeColor=none;fillColor=none;" vertex="1" parent="1">
          <mxGeometry x="230" y="960" width="40" height="30" as="geometry" />
        </mxCell>
        <mxCell id="Kho3y71CLKbO8eLmow51-57" value="Ano" style="text;html=1;align=center;verticalAlign=middle;resizable=0;points=[];autosize=1;strokeColor=none;fillColor=none;" vertex="1" parent="1">
          <mxGeometry x="280" y="1040" width="40" height="30" as="geometry" />
        </mxCell>
        <mxCell id="Kho3y71CLKbO8eLmow51-67" style="edgeStyle=orthogonalEdgeStyle;rounded=0;orthogonalLoop=1;jettySize=auto;html=1;entryX=1;entryY=0.5;entryDx=0;entryDy=0;" edge="1" parent="1" source="Kho3y71CLKbO8eLmow51-59" target="Kho3y71CLKbO8eLmow51-66">
          <mxGeometry relative="1" as="geometry" />
        </mxCell>
        <mxCell id="Kho3y71CLKbO8eLmow51-73" style="edgeStyle=orthogonalEdgeStyle;rounded=0;orthogonalLoop=1;jettySize=auto;html=1;entryX=0.5;entryY=0;entryDx=0;entryDy=0;" edge="1" parent="1" source="Kho3y71CLKbO8eLmow51-59" target="Kho3y71CLKbO8eLmow51-71">
          <mxGeometry relative="1" as="geometry" />
        </mxCell>
        <mxCell id="Kho3y71CLKbO8eLmow51-59" value="Nadviazal spojenie" style="rhombus;whiteSpace=wrap;html=1;" vertex="1" parent="1">
          <mxGeometry x="625" y="340" width="90" height="90" as="geometry" />
        </mxCell>
        <mxCell id="Kho3y71CLKbO8eLmow51-61" value="Nie" style="text;html=1;align=center;verticalAlign=middle;resizable=0;points=[];autosize=1;strokeColor=none;fillColor=none;" vertex="1" parent="1">
          <mxGeometry x="590" y="350" width="40" height="30" as="geometry" />
        </mxCell>
        <mxCell id="Kho3y71CLKbO8eLmow51-68" style="edgeStyle=orthogonalEdgeStyle;rounded=0;orthogonalLoop=1;jettySize=auto;html=1;" edge="1" parent="1" source="Kho3y71CLKbO8eLmow51-66">
          <mxGeometry relative="1" as="geometry">
            <mxPoint x="670" y="290" as="targetPoint" />
            <Array as="points">
              <mxPoint x="550" y="290" />
            </Array>
          </mxGeometry>
        </mxCell>
        <mxCell id="Kho3y71CLKbO8eLmow51-66" value="Počkaj na packet" style="rounded=1;whiteSpace=wrap;html=1;" vertex="1" parent="1">
          <mxGeometry x="510" y="355" width="80" height="60" as="geometry" />
        </mxCell>
        <mxCell id="Kho3y71CLKbO8eLmow51-69" value="Ano" style="text;html=1;align=center;verticalAlign=middle;resizable=0;points=[];autosize=1;strokeColor=none;fillColor=none;" vertex="1" parent="1">
          <mxGeometry x="675" y="430" width="40" height="30" as="geometry" />
        </mxCell>
        <mxCell id="Kho3y71CLKbO8eLmow51-75" style="edgeStyle=orthogonalEdgeStyle;rounded=0;orthogonalLoop=1;jettySize=auto;html=1;entryX=0.5;entryY=0;entryDx=0;entryDy=0;" edge="1" parent="1" source="Kho3y71CLKbO8eLmow51-71" target="Kho3y71CLKbO8eLmow51-74">
          <mxGeometry relative="1" as="geometry" />
        </mxCell>
        <mxCell id="Kho3y71CLKbO8eLmow51-71" value="Nadzviazal spojenie" style="rounded=1;whiteSpace=wrap;html=1;" vertex="1" parent="1">
          <mxGeometry x="630" y="470" width="80" height="60" as="geometry" />
        </mxCell>
        <mxCell id="Kho3y71CLKbO8eLmow51-79" style="edgeStyle=orthogonalEdgeStyle;rounded=0;orthogonalLoop=1;jettySize=auto;html=1;entryX=0.5;entryY=0;entryDx=0;entryDy=0;" edge="1" parent="1" source="Kho3y71CLKbO8eLmow51-74" target="Kho3y71CLKbO8eLmow51-76">
          <mxGeometry relative="1" as="geometry" />
        </mxCell>
        <mxCell id="Kho3y71CLKbO8eLmow51-74" value="Prijmi packet" style="rounded=1;whiteSpace=wrap;html=1;" vertex="1" parent="1">
          <mxGeometry x="630" y="560" width="80" height="60" as="geometry" />
        </mxCell>
        <mxCell id="Kho3y71CLKbO8eLmow51-77" style="edgeStyle=orthogonalEdgeStyle;rounded=0;orthogonalLoop=1;jettySize=auto;html=1;entryX=0;entryY=0.5;entryDx=0;entryDy=0;" edge="1" parent="1" source="Kho3y71CLKbO8eLmow51-76" target="Kho3y71CLKbO8eLmow51-74">
          <mxGeometry relative="1" as="geometry">
            <Array as="points">
              <mxPoint x="580" y="690" />
              <mxPoint x="580" y="590" />
            </Array>
          </mxGeometry>
        </mxCell>
        <mxCell id="Kho3y71CLKbO8eLmow51-84" style="edgeStyle=orthogonalEdgeStyle;rounded=0;orthogonalLoop=1;jettySize=auto;html=1;entryX=0.5;entryY=0;entryDx=0;entryDy=0;" edge="1" parent="1" source="Kho3y71CLKbO8eLmow51-76" target="Kho3y71CLKbO8eLmow51-83">
          <mxGeometry relative="1" as="geometry" />
        </mxCell>
        <mxCell id="Kho3y71CLKbO8eLmow51-76" value="Checksum&lt;br&gt;OK ?" style="rhombus;whiteSpace=wrap;html=1;" vertex="1" parent="1">
          <mxGeometry x="630" y="650" width="80" height="80" as="geometry" />
        </mxCell>
        <mxCell id="Kho3y71CLKbO8eLmow51-78" value="Nie" style="text;html=1;align=center;verticalAlign=middle;resizable=0;points=[];autosize=1;strokeColor=none;fillColor=none;" vertex="1" parent="1">
          <mxGeometry x="580" y="658" width="40" height="30" as="geometry" />
        </mxCell>
        <mxCell id="Kho3y71CLKbO8eLmow51-87" style="edgeStyle=orthogonalEdgeStyle;rounded=0;orthogonalLoop=1;jettySize=auto;html=1;entryX=0.5;entryY=0;entryDx=0;entryDy=0;" edge="1" parent="1" source="Kho3y71CLKbO8eLmow51-83" target="Kho3y71CLKbO8eLmow51-86">
          <mxGeometry relative="1" as="geometry" />
        </mxCell>
        <mxCell id="Kho3y71CLKbO8eLmow51-83" value="Pošli potvrdenie" style="rounded=1;whiteSpace=wrap;html=1;" vertex="1" parent="1">
          <mxGeometry x="630" y="750" width="80" height="60" as="geometry" />
        </mxCell>
        <mxCell id="Kho3y71CLKbO8eLmow51-85" value="Ano" style="text;html=1;align=center;verticalAlign=middle;resizable=0;points=[];autosize=1;strokeColor=none;fillColor=none;" vertex="1" parent="1">
          <mxGeometry x="680" y="718" width="40" height="30" as="geometry" />
        </mxCell>
        <mxCell id="Kho3y71CLKbO8eLmow51-89" style="edgeStyle=orthogonalEdgeStyle;rounded=0;orthogonalLoop=1;jettySize=auto;html=1;" edge="1" parent="1" source="Kho3y71CLKbO8eLmow51-86">
          <mxGeometry relative="1" as="geometry">
            <mxPoint x="580" y="590" as="targetPoint" />
            <Array as="points">
              <mxPoint x="560" y="885" />
              <mxPoint x="560" y="590" />
            </Array>
          </mxGeometry>
        </mxCell>
        <mxCell id="Kho3y71CLKbO8eLmow51-94" style="edgeStyle=orthogonalEdgeStyle;rounded=0;orthogonalLoop=1;jettySize=auto;html=1;entryX=0.5;entryY=0;entryDx=0;entryDy=0;" edge="1" parent="1" source="Kho3y71CLKbO8eLmow51-86" target="Kho3y71CLKbO8eLmow51-93">
          <mxGeometry relative="1" as="geometry" />
        </mxCell>
        <mxCell id="Kho3y71CLKbO8eLmow51-86" value="Boli to všetky ?" style="rhombus;whiteSpace=wrap;html=1;" vertex="1" parent="1">
          <mxGeometry x="615" y="830" width="110" height="110" as="geometry" />
        </mxCell>
        <mxCell id="Kho3y71CLKbO8eLmow51-88" value="Nie" style="text;html=1;align=center;verticalAlign=middle;resizable=0;points=[];autosize=1;strokeColor=none;fillColor=none;" vertex="1" parent="1">
          <mxGeometry x="590" y="848" width="40" height="30" as="geometry" />
        </mxCell>
        <mxCell id="Kho3y71CLKbO8eLmow51-90" value="Ano" style="text;html=1;align=center;verticalAlign=middle;resizable=0;points=[];autosize=1;strokeColor=none;fillColor=none;" vertex="1" parent="1">
          <mxGeometry x="690" y="918" width="40" height="30" as="geometry" />
        </mxCell>
        <mxCell id="Kho3y71CLKbO8eLmow51-97" style="edgeStyle=orthogonalEdgeStyle;rounded=0;orthogonalLoop=1;jettySize=auto;html=1;entryX=1;entryY=0.5;entryDx=0;entryDy=0;" edge="1" parent="1" source="Kho3y71CLKbO8eLmow51-93" target="Kho3y71CLKbO8eLmow51-95">
          <mxGeometry relative="1" as="geometry" />
        </mxCell>
        <mxCell id="Kho3y71CLKbO8eLmow51-93" value="Subor/Správa" style="rhombus;whiteSpace=wrap;html=1;" vertex="1" parent="1">
          <mxGeometry x="625" y="960" width="90" height="100" as="geometry" />
        </mxCell>
        <mxCell id="Kho3y71CLKbO8eLmow51-100" style="edgeStyle=orthogonalEdgeStyle;rounded=0;orthogonalLoop=1;jettySize=auto;html=1;entryX=1;entryY=0.5;entryDx=0;entryDy=0;" edge="1" parent="1" source="Kho3y71CLKbO8eLmow51-95" target="Kho3y71CLKbO8eLmow51-99">
          <mxGeometry relative="1" as="geometry" />
        </mxCell>
        <mxCell id="Kho3y71CLKbO8eLmow51-95" value="Správa" style="rounded=1;whiteSpace=wrap;html=1;" vertex="1" parent="1">
          <mxGeometry x="500" y="945" width="80" height="60" as="geometry" />
        </mxCell>
        <mxCell id="Kho3y71CLKbO8eLmow51-102" style="edgeStyle=orthogonalEdgeStyle;rounded=0;orthogonalLoop=1;jettySize=auto;html=1;entryX=1;entryY=0.5;entryDx=0;entryDy=0;" edge="1" parent="1" source="Kho3y71CLKbO8eLmow51-96" target="Kho3y71CLKbO8eLmow51-101">
          <mxGeometry relative="1" as="geometry" />
        </mxCell>
        <mxCell id="Kho3y71CLKbO8eLmow51-96" value="Súbor" style="rounded=1;whiteSpace=wrap;html=1;" vertex="1" parent="1">
          <mxGeometry x="500" y="1025" width="80" height="60" as="geometry" />
        </mxCell>
        <mxCell id="Kho3y71CLKbO8eLmow51-98" style="edgeStyle=orthogonalEdgeStyle;rounded=0;orthogonalLoop=1;jettySize=auto;html=1;entryX=1.001;entryY=0.639;entryDx=0;entryDy=0;entryPerimeter=0;exitX=0.5;exitY=1;exitDx=0;exitDy=0;" edge="1" parent="1" source="Kho3y71CLKbO8eLmow51-93" target="Kho3y71CLKbO8eLmow51-96">
          <mxGeometry relative="1" as="geometry">
            <Array as="points">
              <mxPoint x="670" y="1063" />
            </Array>
          </mxGeometry>
        </mxCell>
        <mxCell id="Kho3y71CLKbO8eLmow51-107" style="edgeStyle=orthogonalEdgeStyle;rounded=0;orthogonalLoop=1;jettySize=auto;html=1;" edge="1" parent="1" source="Kho3y71CLKbO8eLmow51-99">
          <mxGeometry relative="1" as="geometry">
            <mxPoint x="550" y="290" as="targetPoint" />
            <Array as="points">
              <mxPoint x="440" y="713" />
              <mxPoint x="490" y="713" />
              <mxPoint x="490" y="290" />
            </Array>
          </mxGeometry>
        </mxCell>
        <mxCell id="Kho3y71CLKbO8eLmow51-99" value="Vypíš" style="rounded=1;whiteSpace=wrap;html=1;" vertex="1" parent="1">
          <mxGeometry x="400" y="945" width="80" height="60" as="geometry" />
        </mxCell>
        <mxCell id="Kho3y71CLKbO8eLmow51-108" style="edgeStyle=orthogonalEdgeStyle;rounded=0;orthogonalLoop=1;jettySize=auto;html=1;exitX=0;exitY=0.5;exitDx=0;exitDy=0;" edge="1" parent="1" source="Kho3y71CLKbO8eLmow51-101">
          <mxGeometry relative="1" as="geometry">
            <mxPoint x="440" y="720" as="targetPoint" />
            <Array as="points">
              <mxPoint x="370" y="1055" />
              <mxPoint x="370" y="720" />
              <mxPoint x="440" y="720" />
            </Array>
          </mxGeometry>
        </mxCell>
        <mxCell id="Kho3y71CLKbO8eLmow51-101" value="Ulož" style="rounded=1;whiteSpace=wrap;html=1;" vertex="1" parent="1">
          <mxGeometry x="400" y="1025" width="80" height="60" as="geometry" />
        </mxCell>
      </root>
    </mxGraphModel>
  </diagram>
</mxfile>
